<svg width="44" height="18" viewBox="0 0 44 18" fill="none" xmlns="http://www.w3.org/2000/svg">
<path d="M14.25 5.30501C16.9167 6.84461 16.9167 10.6936 14.25 12.2332L6 16.9963C3.33333 18.5359 -7.2611e-07 16.6114 -5.91513e-07 13.5322L-1.75106e-07 4.00597C-4.05102e-08 0.926765 3.33333 -0.997735 6 0.541866L14.25 5.30501Z" fill="#0068DF"/>
<path d="M37.7879 14.9491V5.2371H40.4119V14.9491H37.7879ZM34.5079 5.5571V3.2691H43.7079V5.5571H34.5079Z" fill="#FAFAFA"/>
<path d="M25.802 14.9491L22.25 3.2691H24.954L27.77 13.1251L27.162 12.8211H28.794L28.154 13.1251L30.762 3.2691H33.386L30.074 14.9491H25.802Z" fill="#FAFAFA"/>
</svg>
